<svg width="188" height="29" viewBox="0 0 188 29" fill="none" xmlns="http://www.w3.org/2000/svg">
<path d="M0.582386 28H11.1804C17.1761 28 20.1165 24.9446 20.1165 20.8665C20.1165 16.9034 17.304 14.5767 14.517 14.4361V14.1804C17.0739 13.5795 19.0938 11.7898 19.0938 8.60653C19.0938 4.70739 16.2812 1.81818 10.6051 1.81818H0.582386V28ZM5.32528 24.0369V16.3665H10.554C13.4815 16.3665 15.2969 18.1562 15.2969 20.4957C15.2969 22.5795 13.8651 24.0369 10.4261 24.0369H5.32528ZM5.32528 12.9531V5.73011H10.1193C12.9062 5.73011 14.3509 7.20028 14.3509 9.22017C14.3509 11.5213 12.4844 12.9531 10.017 12.9531H5.32528ZM32.7312 28.3835C37.3079 28.3835 40.4528 26.1463 41.271 22.733L36.9499 22.2472C36.3235 23.9091 34.7894 24.7784 32.7951 24.7784C29.8036 24.7784 27.8221 22.8097 27.7837 19.4474H41.4627V18.0284C41.4627 11.1378 37.3207 8.10795 32.4883 8.10795C26.8633 8.10795 23.1942 12.2372 23.1942 18.2969C23.1942 24.4588 26.8121 28.3835 32.7312 28.3835ZM27.7965 16.3281C27.9371 13.8224 29.7908 11.7131 32.5522 11.7131C35.2113 11.7131 37.0011 13.6562 37.0266 16.3281H27.7965ZM45.3778 28H50.0057V16.0597C50.0057 13.6435 51.6165 12.0071 53.6108 12.0071C55.5668 12.0071 56.9091 13.3239 56.9091 15.3438V28H61.4474V15.7528C61.4474 13.5412 62.7642 12.0071 65.0014 12.0071C66.8679 12.0071 68.3509 13.1065 68.3509 15.5355V28H72.9915V14.8196C72.9915 10.4347 70.4602 8.10795 66.8551 8.10795C64.0043 8.10795 61.831 9.5142 60.9616 11.7003H60.7571C60.0028 9.47585 58.098 8.10795 55.4517 8.10795C52.8182 8.10795 50.8494 9.46307 50.0312 11.7003H49.8011V8.36364H45.3778V28ZM89.5884 15.1903H77.8015V19H89.5884V15.1903ZM111.996 8.36364H107.074L102.548 22.9503H102.344L97.831 8.36364H92.8963L99.8892 28H105.003L111.996 8.36364ZM115.198 28H119.826V8.36364H115.198V28ZM117.525 5.5767C118.995 5.5767 120.197 4.4517 120.197 3.07102C120.197 1.67756 118.995 0.552556 117.525 0.552556C116.042 0.552556 114.84 1.67756 114.84 3.07102C114.84 4.4517 116.042 5.5767 117.525 5.5767ZM129.213 16.4943C129.213 13.6562 130.926 12.0199 133.368 12.0199C135.758 12.0199 137.19 13.5923 137.19 16.2131V28H141.818V15.4972C141.831 10.7926 139.146 8.10795 135.093 8.10795C132.153 8.10795 130.133 9.5142 129.238 11.7003H129.008V8.36364H124.585V28H129.213V16.4943ZM153.809 28.3452C157.184 28.3452 158.706 26.3381 159.434 24.9062H159.716V28H164.267V1.81818H159.626V11.6108H159.434C158.731 10.1918 157.287 8.10795 153.822 8.10795C149.284 8.10795 145.717 11.6619 145.717 18.2074C145.717 24.6761 149.181 28.3452 153.809 28.3452ZM155.1 24.5483C152.045 24.5483 150.434 21.8636 150.434 18.1818C150.434 14.5256 152.02 11.9048 155.1 11.9048C158.079 11.9048 159.716 14.3722 159.716 18.1818C159.716 21.9915 158.054 24.5483 155.1 24.5483ZM177.763 28.3835C183.516 28.3835 187.173 24.331 187.173 18.2585C187.173 12.1733 183.516 8.10795 177.763 8.10795C172.011 8.10795 168.354 12.1733 168.354 18.2585C168.354 24.331 172.011 28.3835 177.763 28.3835ZM177.789 24.6761C174.606 24.6761 173.046 21.8381 173.046 18.2457C173.046 14.6534 174.606 11.777 177.789 11.777C180.921 11.777 182.481 14.6534 182.481 18.2457C182.481 21.8381 180.921 24.6761 177.789 24.6761Z" fill="white"/>
</svg>

